<svg width="189" height="25" viewBox="0 0 189 25" fill="none" xmlns="http://www.w3.org/2000/svg">
<path d="M7.93945 20C8.02409 19.5898 8.06641 19.2643 8.06641 19.0234C8.06641 18.776 8.0599 18.5905 8.04688 18.4668C8.04036 18.3431 8.02734 18.2129 8.00781 18.0762C7.99479 17.9329 7.97526 17.7767 7.94922 17.6074C7.92969 17.4316 7.91016 17.2298 7.89062 17.002C7.74089 15.446 7.21029 14.1667 6.29883 13.1641C5.89518 12.7214 5.45898 12.3861 4.99023 12.1582C4.52148 11.9238 4.13411 11.8066 3.82812 11.8066C3.52865 11.8066 3.29753 11.8262 3.13477 11.8652C2.77018 12.959 2.58789 14.1016 2.58789 15.293C2.58789 16.3477 2.64323 17.1354 2.75391 17.6562C2.92969 18.4375 3.19987 19.222 3.56445 20.0098H0.644531C0.800781 19.6191 0.878906 18.7988 0.878906 17.5488C0.878906 16.2923 0.973307 15.1204 1.16211 14.0332C1.35091 12.9395 1.59505 11.9661 1.89453 11.1133C2.20052 10.2604 2.53906 9.51497 2.91016 8.87695C3.28776 8.23242 3.66211 7.67253 4.0332 7.19727C4.41081 6.71549 4.76562 6.30534 5.09766 5.9668C5.42969 5.62174 5.70638 5.31901 5.92773 5.05859H9.00391C8.72396 5.3776 8.58398 5.82357 8.58398 6.39648C8.58398 6.6569 8.6263 7.08333 8.71094 7.67578L8.95508 9.45312C9.84701 15.599 10.6445 19.1146 11.3477 20H7.93945ZM3.53516 10.8301C3.78906 10.7324 4.05599 10.6836 4.33594 10.6836C4.61589 10.6836 4.86654 10.7031 5.08789 10.7422C5.31576 10.7812 5.54036 10.8464 5.76172 10.9375C6.23698 11.1198 6.63411 11.4095 6.95312 11.8066C6.63411 10.1335 6.4388 9.11133 6.36719 8.74023L6.02539 7.03125L5.46875 7.69531C4.6875 8.63281 4.04297 9.67773 3.53516 10.8301ZM12.6562 20C12.9557 18.9714 13.1055 17.2038 13.1055 14.6973C13.1055 12.9134 12.9622 11.696 12.6758 11.0449C12.5586 10.778 12.3503 10.4753 12.0508 10.1367H15.5176C15.4004 10.5469 15.306 11.11 15.2344 11.8262C15.8464 11.0579 16.6992 10.5143 17.793 10.1953C18.2617 10.0586 18.6035 9.84375 18.8184 9.55078C19.0332 10.0651 19.1406 10.5078 19.1406 10.8789C19.1406 11.25 19.1211 11.5951 19.082 11.9141C19.043 12.2266 18.9844 12.5326 18.9062 12.832C18.737 13.4766 18.5124 13.9779 18.2324 14.3359C17.9915 13.0664 17.6172 12.3242 17.1094 12.1094C16.5234 11.8555 15.9505 12.2005 15.3906 13.1445C15.2734 13.3398 15.1758 13.5482 15.0977 13.7695C15.0911 13.9193 15.0879 14.0723 15.0879 14.2285C15.0879 14.3848 15.0879 14.541 15.0879 14.6973C15.0879 17.2038 15.2376 18.9714 15.5371 20H12.6562ZM23.3203 6.23047C23.1836 6.73177 23.1152 7.33398 23.1152 8.03711C23.1152 8.73372 23.1283 9.17969 23.1543 9.375C23.1868 9.57031 23.2357 9.72656 23.3008 9.84375C23.4245 10.0391 23.6654 10.1367 24.0234 10.1367H26.6406C26.6406 10.5013 26.5527 10.7812 26.377 10.9766C26.0579 11.3281 25.6673 11.5039 25.2051 11.5039C24.9772 11.5039 24.7754 11.4714 24.5996 11.4062C24.2806 11.276 24.0332 11.2109 23.8574 11.2109C23.6816 11.2109 23.5384 11.2467 23.4277 11.3184C23.3171 11.3835 23.2292 11.4811 23.1641 11.6113C23.0469 11.8457 22.9883 12.3568 22.9883 13.1445C22.9883 13.9323 23.0111 14.7396 23.0566 15.5664C23.1087 16.3932 23.2324 17.0866 23.4277 17.6465C23.623 18.1999 23.9193 18.6165 24.3164 18.8965C24.7135 19.1764 25.2604 19.3164 25.957 19.3164C25.957 19.5182 25.8203 19.7591 25.5469 20.0391C25.4753 20.1172 25.4134 20.1693 25.3613 20.1953C24.209 20.1953 23.3464 20.0586 22.7734 19.7852C22.1159 19.4596 21.6471 18.8802 21.3672 18.0469C21.0872 17.2005 20.9473 15.9473 20.9473 14.2871C20.9473 12.8353 20.9082 11.9792 20.8301 11.7188C20.752 11.4518 20.6803 11.276 20.6152 11.1914C20.5371 11.0938 20.3483 10.9733 20.0488 10.8301C20.4525 10.5241 20.8529 9.95443 21.25 9.12109L21.7383 8.0957C22.0833 7.31445 22.3763 6.8099 22.6172 6.58203C22.8646 6.34766 23.099 6.23047 23.3203 6.23047ZM39.3262 5.9375C38.291 5.9375 37.7734 6.32161 37.7734 7.08984C37.7734 7.76042 38.0404 8.29427 38.5742 8.69141C39.0885 9.06901 39.7689 9.25781 40.6152 9.25781H46.3086C46.8815 9.35547 47.168 9.94466 47.168 11.0254C47.168 11.5983 47.0671 12.0736 46.8652 12.4512C46.5007 11.6374 46.2174 11.0905 46.0156 10.8105C45.6445 10.2962 45.2637 10.0391 44.873 10.0391C44.528 10.0391 44.3164 10.1432 44.2383 10.3516C44.1406 10.6055 44.0918 11.0352 44.0918 11.6406V12.7637C44.0918 13.1608 44.1016 13.6816 44.1211 14.3262L44.1602 16.0352C44.1732 16.5365 44.1862 17.0801 44.1992 17.666C44.2188 18.6361 44.3359 19.4141 44.5508 20C44.4661 20.0065 44.3815 20.0098 44.2969 20.0098H44.0625C42.2005 20.0098 40.5794 19.5964 39.1992 18.7695C37.9622 18.0404 37.0052 17.0573 36.3281 15.8203C35.6966 14.681 35.3809 13.4993 35.3809 12.2754C35.3809 11.2272 35.7357 10.4362 36.4453 9.90234C36.6471 9.74609 36.8555 9.62891 37.0703 9.55078C36.3542 9.06901 35.8691 8.43424 35.6152 7.64648C35.5241 7.36654 35.4785 7.08008 35.4785 6.78711C35.4785 6.49414 35.5208 6.23372 35.6055 6.00586C35.6966 5.77799 35.8431 5.57943 36.0449 5.41016C36.4811 5.04557 37.1419 4.86328 38.0273 4.86328C38.3529 4.86328 38.7109 4.88607 39.1016 4.93164C39.8177 5.01628 40.2995 5.05859 40.5469 5.05859C41.1784 5.05859 41.5365 4.83073 41.6211 4.375C41.8424 4.47266 42.0378 4.83724 42.207 5.46875C42.3568 6.01562 42.4316 6.52669 42.4316 7.00195C42.4316 7.82227 42.2754 8.37891 41.9629 8.67188C41.8717 7.98828 41.6081 7.38281 41.1719 6.85547C40.651 6.24349 40.0358 5.9375 39.3262 5.9375ZM42.0117 14.9805L42.002 14.1797V12.4023C42.002 11.4453 41.9401 10.8789 41.8164 10.7031C41.6992 10.5273 41.5495 10.4232 41.3672 10.3906C41.1914 10.3516 40.9505 10.332 40.6445 10.332H39.5508C38.4375 10.332 37.8809 10.8691 37.8809 11.9434C37.8809 13.0111 37.9948 13.9421 38.2227 14.7363C38.457 15.5306 38.7467 16.1947 39.0918 16.7285C39.4368 17.2624 39.8079 17.666 40.2051 17.9395C40.6022 18.2064 40.957 18.3398 41.2695 18.3398C41.582 18.3398 41.7839 18.2292 41.875 18.0078C41.9727 17.7865 42.0215 17.4935 42.0215 17.1289V15.6641L42.0117 14.9805ZM63.0273 4.375C63.2161 4.64193 63.3105 5.05208 63.3105 5.60547C63.3105 6.15234 63.291 6.59831 63.252 6.94336C63.2194 7.2819 63.1673 7.61068 63.0957 7.92969C62.9395 8.64583 62.7214 9.1862 62.4414 9.55078C62.2005 8.29427 61.888 7.39583 61.5039 6.85547C61.1003 6.30859 60.5729 6.03516 59.9219 6.03516C59.2773 6.03516 58.7728 6.15885 58.4082 6.40625C58.0436 6.65365 57.7637 6.97917 57.5684 7.38281C57.2428 8.05339 57.0801 9.04297 57.0801 10.3516C57.0801 11.6536 57.2266 12.8483 57.5195 13.9355C57.819 15.0163 58.2422 15.9473 58.7891 16.7285C59.9414 18.3887 61.4421 19.2188 63.291 19.2188C63.265 19.5117 63.112 19.7656 62.832 19.9805C62.7474 20.0456 62.6562 20.0846 62.5586 20.0977C60.1953 20.0977 58.2682 19.2285 56.7773 17.4902C55.1953 15.6413 54.4043 13.1217 54.4043 9.93164C54.4043 8.26497 54.8926 7.01172 55.8691 6.17188C56.735 5.42969 57.9199 5.05859 59.4238 5.05859L61.0547 5.07812C61.8229 5.07812 62.3633 4.96745 62.6758 4.74609C62.806 4.64844 62.9232 4.52474 63.0273 4.375ZM72.959 11.0547L72.8125 15.4199C72.8125 17.1973 72.9688 18.418 73.2812 19.082C73.3919 19.3229 73.5872 19.6289 73.8672 20H71.1523C71.0026 19.5573 70.9049 18.9974 70.8594 18.3203C70.1042 19.5703 69.1309 20.1953 67.9395 20.1953C67.1191 20.1953 66.4909 19.8893 66.0547 19.2773C65.625 18.6849 65.4102 17.8711 65.4102 16.8359V15.5176C65.4102 15.2246 65.4102 14.9251 65.4102 14.6191L65.3906 13.7305C65.3841 13.1641 65.3646 12.7246 65.332 12.4121C65.306 12.0931 65.2734 11.8294 65.2344 11.6211C65.2018 11.4062 65.1595 11.2174 65.1074 11.0547C65.0553 10.8854 64.9967 10.7292 64.9316 10.5859L64.7168 10.1367H67.5391C67.5456 10.2409 67.5488 10.3385 67.5488 10.4297V10.7129C67.5488 10.7129 67.4935 12.347 67.3828 15.6152C67.3828 16.5723 67.4447 17.2233 67.5684 17.5684C67.6921 17.9134 67.8385 18.1608 68.0078 18.3105C68.1836 18.4603 68.4147 18.5352 68.7012 18.5352C69.4759 18.5352 70.1042 18.112 70.5859 17.2656C70.7161 17.0247 70.8236 16.7806 70.9082 16.5332C70.9212 16.1686 70.9277 15.7552 70.9277 15.293C70.9277 12.9167 70.752 11.3477 70.4004 10.5859L70.1855 10.1367H72.9688C72.9622 10.2995 72.959 10.4492 72.959 10.5859V11.0547ZM81.9727 9.56055C82.1484 9.95117 82.2363 10.3451 82.2363 10.7422C82.2363 11.1393 82.2168 11.4681 82.1777 11.7285C82.1452 11.9889 82.0931 12.2396 82.0215 12.4805C81.8587 13.0273 81.6276 13.4473 81.3281 13.7402C81.1263 12.7311 80.9049 12.0768 80.6641 11.7773C80.4297 11.4779 80.1921 11.276 79.9512 11.1719C79.7168 11.0677 79.4661 11.0156 79.1992 11.0156C78.9323 11.0156 78.7142 11.0417 78.5449 11.0938C78.3757 11.1458 78.2292 11.2207 78.1055 11.3184C77.8255 11.5332 77.6855 11.7773 77.6855 12.0508C77.6855 12.3242 77.7539 12.5618 77.8906 12.7637C78.0273 12.959 78.2064 13.1445 78.4277 13.3203C78.6556 13.4896 78.9128 13.6556 79.1992 13.8184L80.0781 14.3164C80.8333 14.7396 81.3509 15.0911 81.6309 15.3711C82.1842 15.9245 82.4609 16.5072 82.4609 17.1191C82.4609 17.9199 82.1875 18.5938 81.6406 19.1406C80.9505 19.8438 79.9154 20.1953 78.5352 20.1953C77.2786 20.1953 76.3346 19.9023 75.7031 19.3164C75.5208 19.1471 75.3906 18.9779 75.3125 18.8086C75.3646 18.3203 75.5827 17.8613 75.9668 17.4316C76.3379 17.015 76.6992 16.7741 77.0508 16.709C77.0247 16.7936 77.0117 16.9206 77.0117 17.0898C77.0117 17.2591 77.0605 17.4707 77.1582 17.7246C77.2559 17.972 77.3958 18.2031 77.5781 18.418C77.9883 18.9128 78.4505 19.1602 78.9648 19.1602C79.4792 19.1602 79.8568 19.043 80.0977 18.8086C80.3385 18.5742 80.459 18.3073 80.459 18.0078C80.459 17.7083 80.3906 17.4577 80.2539 17.2559C80.1172 17.054 79.9349 16.8652 79.707 16.6895C79.4857 16.5137 79.2318 16.3444 78.9453 16.1816L78.0664 15.6836C77.3177 15.2409 76.8034 14.8633 76.5234 14.5508C75.9635 13.9258 75.6836 13.2454 75.6836 12.5098C75.6836 11.735 76.0091 11.1068 76.6602 10.625C77.2786 10.1693 78.0501 9.94141 78.9746 9.94141L80.6934 10.0586C81.11 10.0586 81.3997 10.0098 81.5625 9.91211C81.7253 9.80794 81.862 9.69076 81.9727 9.56055ZM87.5195 6.23047C87.3828 6.73177 87.3145 7.33398 87.3145 8.03711C87.3145 8.73372 87.3275 9.17969 87.3535 9.375C87.3861 9.57031 87.4349 9.72656 87.5 9.84375C87.6237 10.0391 87.8646 10.1367 88.2227 10.1367H90.8398C90.8398 10.5013 90.752 10.7812 90.5762 10.9766C90.2572 11.3281 89.8665 11.5039 89.4043 11.5039C89.1764 11.5039 88.9746 11.4714 88.7988 11.4062C88.4798 11.276 88.2324 11.2109 88.0566 11.2109C87.8809 11.2109 87.7376 11.2467 87.627 11.3184C87.5163 11.3835 87.4284 11.4811 87.3633 11.6113C87.2461 11.8457 87.1875 12.3568 87.1875 13.1445C87.1875 13.9323 87.2103 14.7396 87.2559 15.5664C87.3079 16.3932 87.4316 17.0866 87.627 17.6465C87.8223 18.1999 88.1185 18.6165 88.5156 18.8965C88.9128 19.1764 89.4596 19.3164 90.1562 19.3164C90.1562 19.5182 90.0195 19.7591 89.7461 20.0391C89.6745 20.1172 89.6126 20.1693 89.5605 20.1953C88.4082 20.1953 87.5456 20.0586 86.9727 19.7852C86.3151 19.4596 85.8464 18.8802 85.5664 18.0469C85.2865 17.2005 85.1465 15.9473 85.1465 14.2871C85.1465 12.8353 85.1074 11.9792 85.0293 11.7188C84.9512 11.4518 84.8796 11.276 84.8145 11.1914C84.7363 11.0938 84.5475 10.9733 84.248 10.8301C84.6517 10.5241 85.0521 9.95443 85.4492 9.12109L85.9375 8.0957C86.2826 7.31445 86.5755 6.8099 86.8164 6.58203C87.0638 6.34766 87.2982 6.23047 87.5195 6.23047ZM96.1914 10.918C95.6055 10.918 95.1823 11.2109 94.9219 11.7969C94.668 12.3828 94.541 13.3691 94.541 14.7559C94.541 17.7311 95.0911 19.2188 96.1914 19.2188C96.7773 19.2188 97.1973 18.8216 97.4512 18.0273C97.7116 17.2331 97.8418 16.1426 97.8418 14.7559C97.8418 13.3691 97.7116 12.3828 97.4512 11.7969C97.1973 11.2109 96.7773 10.918 96.1914 10.918ZM92.0801 14.3848C92.0801 11.4225 93.4505 9.94141 96.1914 9.94141C98.9323 9.94141 100.303 11.4225 100.303 14.3848C100.303 16.1816 99.9251 17.6042 99.1699 18.6523C98.4342 19.681 97.4414 20.1953 96.1914 20.1953C94.9414 20.1953 93.9486 19.681 93.2129 18.6523C92.4577 17.6042 92.0801 16.1816 92.0801 14.3848ZM102.998 20C103.298 18.9714 103.447 17.2038 103.447 14.6973C103.447 12.9134 103.291 11.696 102.979 11.0449C102.9 10.8822 102.812 10.7292 102.715 10.5859L102.393 10.1367H105.781C105.684 10.5208 105.618 10.8268 105.586 11.0547L105.518 11.6406C106.273 10.5078 107.233 9.94141 108.398 9.94141C109.57 9.94141 110.329 10.5762 110.674 11.8457C111.188 10.9668 111.868 10.3841 112.715 10.0977C113.014 9.99349 113.35 9.94141 113.721 9.94141C114.098 9.94141 114.437 10.0228 114.736 10.1855C115.042 10.3418 115.299 10.5664 115.508 10.8594C115.918 11.4518 116.123 12.2624 116.123 13.291V14.3359C116.123 16.3281 116.149 17.5781 116.201 18.0859C116.26 18.5872 116.302 18.9193 116.328 19.082C116.367 19.3685 116.432 19.6745 116.523 20H113.643C113.929 19.0169 114.072 17.2493 114.072 14.6973C114.072 13.6621 114.02 12.9688 113.916 12.6172C113.812 12.2591 113.675 12.002 113.506 11.8457C113.343 11.6829 113.118 11.6016 112.832 11.6016C111.992 11.6016 111.325 12.0964 110.83 13.0859V14.3359C110.83 16.3281 110.856 17.5781 110.908 18.0859C110.967 18.5872 111.009 18.9193 111.035 19.082C111.074 19.3685 111.139 19.6745 111.23 20H108.35C108.643 18.9974 108.789 17.2298 108.789 14.6973C108.789 13.6361 108.737 12.9362 108.633 12.5977C108.529 12.2526 108.395 12.002 108.232 11.8457C108.07 11.6829 107.845 11.6016 107.559 11.6016C107.279 11.6016 107.025 11.6569 106.797 11.7676C106.569 11.8783 106.364 12.0247 106.182 12.207C105.837 12.5456 105.566 12.9818 105.371 13.5156C105.358 13.7044 105.352 13.8997 105.352 14.1016V14.6973C105.352 17.2038 105.501 18.9714 105.801 20H102.998ZM110.508 13.9453L110.469 14.1211L110.508 13.9453ZM128.428 11.7188V13.7402C128.428 15.8105 128.451 17.0866 128.496 17.5684C128.548 18.0436 128.597 18.3854 128.643 18.5938C128.688 18.8021 128.757 18.9876 128.848 19.1504C128.991 19.4173 129.264 19.7005 129.668 20H124.717C125.231 19.681 125.566 19.4043 125.723 19.1699C126.022 18.7272 126.172 18.1543 126.172 17.4512C126.165 15.7194 126.162 14.1504 126.162 12.7441V7.61719C126.162 6.64714 126.009 5.94401 125.703 5.50781C125.586 5.35156 125.446 5.20182 125.283 5.05859H132.627C133.07 5.21484 133.372 5.76172 133.535 6.69922C133.581 6.95964 133.604 7.21354 133.604 7.46094C133.604 7.96875 133.529 8.3724 133.379 8.67188L132.852 7.61719C132.5 6.92708 131.995 6.46484 131.338 6.23047C130.973 6.10026 130.563 6.03516 130.107 6.03516C129.652 6.03516 129.326 6.05143 129.131 6.08398C128.936 6.11003 128.786 6.17839 128.682 6.28906C128.512 6.47786 128.428 6.83919 128.428 7.37305C128.428 7.90039 128.441 8.26823 128.467 8.47656C128.493 8.67839 128.555 8.8444 128.652 8.97461C128.854 9.22852 129.281 9.35547 129.932 9.35547H132.998C132.848 9.73307 132.695 10 132.539 10.1562C132.227 10.4688 131.803 10.625 131.27 10.625C131.061 10.625 130.863 10.6022 130.674 10.5566C130.322 10.472 130.013 10.4297 129.746 10.4297C129.479 10.4297 129.258 10.4557 129.082 10.5078C128.913 10.5534 128.779 10.6283 128.682 10.7324C128.512 10.9147 128.428 11.2435 128.428 11.7188ZM135.098 20C135.397 18.9714 135.547 17.2038 135.547 14.6973C135.547 12.9134 135.404 11.696 135.117 11.0449C135 10.778 134.792 10.4753 134.492 10.1367H137.959C137.842 10.5469 137.747 11.11 137.676 11.8262C138.288 11.0579 139.141 10.5143 140.234 10.1953C140.703 10.0586 141.045 9.84375 141.26 9.55078C141.475 10.0651 141.582 10.5078 141.582 10.8789C141.582 11.25 141.562 11.5951 141.523 11.9141C141.484 12.2266 141.426 12.5326 141.348 12.832C141.178 13.4766 140.954 13.9779 140.674 14.3359C140.433 13.0664 140.059 12.3242 139.551 12.1094C138.965 11.8555 138.392 12.2005 137.832 13.1445C137.715 13.3398 137.617 13.5482 137.539 13.7695C137.533 13.9193 137.529 14.0723 137.529 14.2285C137.529 14.3848 137.529 14.541 137.529 14.6973C137.529 17.2038 137.679 18.9714 137.979 20H135.098ZM150.156 14.7852L150.127 16.6602C150.127 17.8255 150.234 18.6198 150.449 19.043C150.579 19.2969 150.732 19.4922 150.908 19.6289L151.367 20H148.535L148.232 18.8672C147.497 19.7526 146.449 20.1953 145.088 20.1953C144.313 20.1953 143.688 19.9349 143.213 19.4141C142.796 18.9453 142.588 18.3919 142.588 17.7539C142.588 17.1159 142.738 16.5592 143.037 16.084C143.343 15.6087 143.743 15.2148 144.238 14.9023C145.215 14.2969 146.442 13.9811 147.92 13.9551V13.8477C147.92 12.2656 147.676 11.3379 147.188 11.0645C147.012 10.9668 146.784 10.918 146.504 10.918C146.23 10.918 145.957 11.0091 145.684 11.1914C145.41 11.3737 145.163 11.6081 144.941 11.8945C144.499 12.474 144.183 13.1576 143.994 13.9453C143.415 13.6003 143.125 12.9395 143.125 11.9629C143.125 11.5658 143.177 11.1198 143.281 10.625C143.529 10.625 143.763 10.5892 143.984 10.5176L144.736 10.2832C145.472 10.0553 146.191 9.94141 146.895 9.94141C147.598 9.94141 148.158 10.0456 148.574 10.2539C148.997 10.4622 149.326 10.7715 149.561 11.1816C149.958 11.8783 150.156 13.0794 150.156 14.7852ZM144.697 17.9492C144.697 18.3529 144.788 18.6654 144.971 18.8867C145.16 19.1081 145.394 19.2188 145.674 19.2188C145.954 19.2188 146.224 19.1471 146.484 19.0039C146.745 18.8542 146.979 18.6523 147.188 18.3984C147.676 17.819 147.92 17.1387 147.92 16.3574V14.9121C147.008 14.9967 146.257 15.2995 145.664 15.8203C145.02 16.3802 144.697 17.0898 144.697 17.9492ZM153.174 20C153.473 18.9714 153.623 17.2038 153.623 14.6973C153.623 12.9134 153.467 11.696 153.154 11.0449C153.076 10.8822 152.988 10.7292 152.891 10.5859L152.568 10.1367H155.957C155.859 10.5208 155.794 10.8268 155.762 11.0547L155.693 11.6406C156.449 10.5078 157.409 9.94141 158.574 9.94141C159.746 9.94141 160.505 10.5762 160.85 11.8457C161.364 10.9668 162.044 10.3841 162.891 10.0977C163.19 9.99349 163.525 9.94141 163.896 9.94141C164.274 9.94141 164.613 10.0228 164.912 10.1855C165.218 10.3418 165.475 10.5664 165.684 10.8594C166.094 11.4518 166.299 12.2624 166.299 13.291V14.3359C166.299 16.3281 166.325 17.5781 166.377 18.0859C166.436 18.5872 166.478 18.9193 166.504 19.082C166.543 19.3685 166.608 19.6745 166.699 20H163.818C164.105 19.0169 164.248 17.2493 164.248 14.6973C164.248 13.6621 164.196 12.9688 164.092 12.6172C163.988 12.2591 163.851 12.002 163.682 11.8457C163.519 11.6829 163.294 11.6016 163.008 11.6016C162.168 11.6016 161.501 12.0964 161.006 13.0859V14.3359C161.006 16.3281 161.032 17.5781 161.084 18.0859C161.143 18.5872 161.185 18.9193 161.211 19.082C161.25 19.3685 161.315 19.6745 161.406 20H158.525C158.818 18.9974 158.965 17.2298 158.965 14.6973C158.965 13.6361 158.913 12.9362 158.809 12.5977C158.704 12.2526 158.571 12.002 158.408 11.8457C158.245 11.6829 158.021 11.6016 157.734 11.6016C157.454 11.6016 157.201 11.6569 156.973 11.7676C156.745 11.8783 156.54 12.0247 156.357 12.207C156.012 12.5456 155.742 12.9818 155.547 13.5156C155.534 13.7044 155.527 13.8997 155.527 14.1016V14.6973C155.527 17.2038 155.677 18.9714 155.977 20H153.174ZM160.684 13.9453L160.645 14.1211L160.684 13.9453ZM175.918 16.6797C176.152 16.8359 176.27 17.1094 176.27 17.5C176.27 17.8841 176.217 18.2227 176.113 18.5156C176.009 18.8086 175.827 19.082 175.566 19.3359C174.98 19.9089 174.089 20.1953 172.891 20.1953C171.497 20.1953 170.436 19.681 169.707 18.6523C169.062 17.7344 168.74 16.4941 168.74 14.9316C168.74 13.3561 169.176 12.1191 170.049 11.2207C170.876 10.3678 171.995 9.94141 173.408 9.94141C174.391 9.94141 175.16 10.2279 175.713 10.8008C176.149 11.2565 176.367 11.7839 176.367 12.3828C176.367 12.9753 176.25 13.5124 176.016 13.9941C175.788 14.4694 175.449 14.8796 175 15.2246C174.076 15.9408 172.783 16.3184 171.123 16.3574C171.26 17.666 171.67 18.5417 172.354 18.9844C172.601 19.1406 172.93 19.2188 173.34 19.2188C173.75 19.2188 174.186 19.0039 174.648 18.5742C175.111 18.1445 175.534 17.513 175.918 16.6797ZM171.064 15.4297C173.122 15.293 174.15 14.2969 174.15 12.4414C174.15 11.7448 173.942 11.276 173.525 11.0352C173.382 10.957 173.193 10.918 172.959 10.918C172.725 10.918 172.487 10.9896 172.246 11.1328C172.012 11.276 171.807 11.5104 171.631 11.8359C171.253 12.5456 171.064 13.6426 171.064 15.127V15.4297ZM184.551 9.56055C184.727 9.95117 184.814 10.3451 184.814 10.7422C184.814 11.1393 184.795 11.4681 184.756 11.7285C184.723 11.9889 184.671 12.2396 184.6 12.4805C184.437 13.0273 184.206 13.4473 183.906 13.7402C183.704 12.7311 183.483 12.0768 183.242 11.7773C183.008 11.4779 182.77 11.276 182.529 11.1719C182.295 11.0677 182.044 11.0156 181.777 11.0156C181.51 11.0156 181.292 11.0417 181.123 11.0938C180.954 11.1458 180.807 11.2207 180.684 11.3184C180.404 11.5332 180.264 11.7773 180.264 12.0508C180.264 12.3242 180.332 12.5618 180.469 12.7637C180.605 12.959 180.785 13.1445 181.006 13.3203C181.234 13.4896 181.491 13.6556 181.777 13.8184L182.656 14.3164C183.411 14.7396 183.929 15.0911 184.209 15.3711C184.762 15.9245 185.039 16.5072 185.039 17.1191C185.039 17.9199 184.766 18.5938 184.219 19.1406C183.529 19.8438 182.493 20.1953 181.113 20.1953C179.857 20.1953 178.913 19.9023 178.281 19.3164C178.099 19.1471 177.969 18.9779 177.891 18.8086C177.943 18.3203 178.161 17.8613 178.545 17.4316C178.916 17.015 179.277 16.7741 179.629 16.709C179.603 16.7936 179.59 16.9206 179.59 17.0898C179.59 17.2591 179.639 17.4707 179.736 17.7246C179.834 17.972 179.974 18.2031 180.156 18.418C180.566 18.9128 181.029 19.1602 181.543 19.1602C182.057 19.1602 182.435 19.043 182.676 18.8086C182.917 18.5742 183.037 18.3073 183.037 18.0078C183.037 17.7083 182.969 17.4577 182.832 17.2559C182.695 17.054 182.513 16.8652 182.285 16.6895C182.064 16.5137 181.81 16.3444 181.523 16.1816L180.645 15.6836C179.896 15.2409 179.382 14.8633 179.102 14.5508C178.542 13.9258 178.262 13.2454 178.262 12.5098C178.262 11.735 178.587 11.1068 179.238 10.625C179.857 10.1693 180.628 9.94141 181.553 9.94141L183.271 10.0586C183.688 10.0586 183.978 10.0098 184.141 9.91211C184.303 9.80794 184.44 9.69076 184.551 9.56055Z" fill="#0B3A82"/>
</svg>
