<svg width="228" height="38" viewBox="0 0 228 38" fill="none" xmlns="http://www.w3.org/2000/svg">
<path d="M7 1.75L0 0.25V37.75L30 36.25V28.75H7V1.75Z" fill="#327ED8"/>
<path d="M10 9.75V2.25L29.5 5.75V24.75H22.5V11.75L10 9.75Z" fill="#0B3A82"/>
<path d="M43.9395 27.25C44.0241 26.8398 44.0664 26.5143 44.0664 26.2734C44.0664 26.026 44.0599 25.8405 44.0469 25.7168C44.0404 25.5931 44.0273 25.4629 44.0078 25.3262C43.9948 25.1829 43.9753 25.0267 43.9492 24.8574C43.9297 24.6816 43.9102 24.4798 43.8906 24.252C43.7409 22.696 43.2103 21.4167 42.2988 20.4141C41.8952 19.9714 41.459 19.6361 40.9902 19.4082C40.5215 19.1738 40.1341 19.0566 39.8281 19.0566C39.5286 19.0566 39.2975 19.0762 39.1348 19.1152C38.7702 20.209 38.5879 21.3516 38.5879 22.543C38.5879 23.5977 38.6432 24.3854 38.7539 24.9062C38.9297 25.6875 39.1999 26.472 39.5645 27.2598H36.6445C36.8008 26.8691 36.8789 26.0488 36.8789 24.7988C36.8789 23.5423 36.9733 22.3704 37.1621 21.2832C37.3509 20.1895 37.5951 19.2161 37.8945 18.3633C38.2005 17.5104 38.5391 16.765 38.9102 16.127C39.2878 15.4824 39.6621 14.9225 40.0332 14.4473C40.4108 13.9655 40.7656 13.5553 41.0977 13.2168C41.4297 12.8717 41.7064 12.569 41.9277 12.3086H45.0039C44.724 12.6276 44.584 13.0736 44.584 13.6465C44.584 13.9069 44.6263 14.3333 44.7109 14.9258L44.9551 16.7031C45.847 22.849 46.6445 26.3646 47.3477 27.25H43.9395ZM39.5352 18.0801C39.7891 17.9824 40.056 17.9336 40.3359 17.9336C40.6159 17.9336 40.8665 17.9531 41.0879 17.9922C41.3158 18.0312 41.5404 18.0964 41.7617 18.1875C42.237 18.3698 42.6341 18.6595 42.9531 19.0566C42.6341 17.3835 42.4388 16.3613 42.3672 15.9902L42.0254 14.2812L41.4688 14.9453C40.6875 15.8828 40.043 16.9277 39.5352 18.0801ZM48.6562 27.25C48.9557 26.2214 49.1055 24.4538 49.1055 21.9473C49.1055 20.1634 48.9622 18.946 48.6758 18.2949C48.5586 18.028 48.3503 17.7253 48.0508 17.3867H51.5176C51.4004 17.7969 51.306 18.36 51.2344 19.0762C51.8464 18.3079 52.6992 17.7643 53.793 17.4453C54.2617 17.3086 54.6035 17.0938 54.8184 16.8008C55.0332 17.3151 55.1406 17.7578 55.1406 18.1289C55.1406 18.5 55.1211 18.8451 55.082 19.1641C55.043 19.4766 54.9844 19.7826 54.9062 20.082C54.737 20.7266 54.5124 21.2279 54.2324 21.5859C53.9915 20.3164 53.6172 19.5742 53.1094 19.3594C52.5234 19.1055 51.9505 19.4505 51.3906 20.3945C51.2734 20.5898 51.1758 20.7982 51.0977 21.0195C51.0911 21.1693 51.0879 21.3223 51.0879 21.4785C51.0879 21.6348 51.0879 21.791 51.0879 21.9473C51.0879 24.4538 51.2376 26.2214 51.5371 27.25H48.6562ZM59.3203 13.4805C59.1836 13.9818 59.1152 14.584 59.1152 15.2871C59.1152 15.9837 59.1283 16.4297 59.1543 16.625C59.1868 16.8203 59.2357 16.9766 59.3008 17.0938C59.4245 17.2891 59.6654 17.3867 60.0234 17.3867H62.6406C62.6406 17.7513 62.5527 18.0312 62.377 18.2266C62.0579 18.5781 61.6673 18.7539 61.2051 18.7539C60.9772 18.7539 60.7754 18.7214 60.5996 18.6562C60.2806 18.526 60.0332 18.4609 59.8574 18.4609C59.6816 18.4609 59.5384 18.4967 59.4277 18.5684C59.3171 18.6335 59.2292 18.7311 59.1641 18.8613C59.0469 19.0957 58.9883 19.6068 58.9883 20.3945C58.9883 21.1823 59.0111 21.9896 59.0566 22.8164C59.1087 23.6432 59.2324 24.3366 59.4277 24.8965C59.623 25.4499 59.9193 25.8665 60.3164 26.1465C60.7135 26.4264 61.2604 26.5664 61.957 26.5664C61.957 26.7682 61.8203 27.0091 61.5469 27.2891C61.4753 27.3672 61.4134 27.4193 61.3613 27.4453C60.209 27.4453 59.3464 27.3086 58.7734 27.0352C58.1159 26.7096 57.6471 26.1302 57.3672 25.2969C57.0872 24.4505 56.9473 23.1973 56.9473 21.5371C56.9473 20.0853 56.9082 19.2292 56.8301 18.9688C56.752 18.7018 56.6803 18.526 56.6152 18.4414C56.5371 18.3438 56.3483 18.2233 56.0488 18.0801C56.4525 17.7741 56.8529 17.2044 57.25 16.3711L57.7383 15.3457C58.0833 14.5645 58.3763 14.0599 58.6172 13.832C58.8646 13.5977 59.099 13.4805 59.3203 13.4805ZM75.3262 13.1875C74.291 13.1875 73.7734 13.5716 73.7734 14.3398C73.7734 15.0104 74.0404 15.5443 74.5742 15.9414C75.0885 16.319 75.7689 16.5078 76.6152 16.5078H82.3086C82.8815 16.6055 83.168 17.1947 83.168 18.2754C83.168 18.8483 83.0671 19.3236 82.8652 19.7012C82.5007 18.8874 82.2174 18.3405 82.0156 18.0605C81.6445 17.5462 81.2637 17.2891 80.873 17.2891C80.528 17.2891 80.3164 17.3932 80.2383 17.6016C80.1406 17.8555 80.0918 18.2852 80.0918 18.8906V20.0137C80.0918 20.4108 80.1016 20.9316 80.1211 21.5762L80.1602 23.2852C80.1732 23.7865 80.1862 24.3301 80.1992 24.916C80.2188 25.8861 80.3359 26.6641 80.5508 27.25C80.4661 27.2565 80.3815 27.2598 80.2969 27.2598H80.0625C78.2005 27.2598 76.5794 26.8464 75.1992 26.0195C73.9622 25.2904 73.0052 24.3073 72.3281 23.0703C71.6966 21.931 71.3809 20.7493 71.3809 19.5254C71.3809 18.4772 71.7357 17.6862 72.4453 17.1523C72.6471 16.9961 72.8555 16.8789 73.0703 16.8008C72.3542 16.319 71.8691 15.6842 71.6152 14.8965C71.5241 14.6165 71.4785 14.3301 71.4785 14.0371C71.4785 13.7441 71.5208 13.4837 71.6055 13.2559C71.6966 13.028 71.8431 12.8294 72.0449 12.6602C72.4811 12.2956 73.1419 12.1133 74.0273 12.1133C74.3529 12.1133 74.7109 12.1361 75.1016 12.1816C75.8177 12.2663 76.2995 12.3086 76.5469 12.3086C77.1784 12.3086 77.5365 12.0807 77.6211 11.625C77.8424 11.7227 78.0378 12.0872 78.207 12.7188C78.3568 13.2656 78.4316 13.7767 78.4316 14.252C78.4316 15.0723 78.2754 15.6289 77.9629 15.9219C77.8717 15.2383 77.6081 14.6328 77.1719 14.1055C76.651 13.4935 76.0358 13.1875 75.3262 13.1875ZM78.0117 22.2305L78.002 21.4297V19.6523C78.002 18.6953 77.9401 18.1289 77.8164 17.9531C77.6992 17.7773 77.5495 17.6732 77.3672 17.6406C77.1914 17.6016 76.9505 17.582 76.6445 17.582H75.5508C74.4375 17.582 73.8809 18.1191 73.8809 19.1934C73.8809 20.2611 73.9948 21.1921 74.2227 21.9863C74.457 22.7806 74.7467 23.4447 75.0918 23.9785C75.4368 24.5124 75.8079 24.916 76.2051 25.1895C76.6022 25.4564 76.957 25.5898 77.2695 25.5898C77.582 25.5898 77.7839 25.4792 77.875 25.2578C77.9727 25.0365 78.0215 24.7435 78.0215 24.3789V22.9141L78.0117 22.2305ZM99.0273 11.625C99.2161 11.8919 99.3105 12.3021 99.3105 12.8555C99.3105 13.4023 99.291 13.8483 99.252 14.1934C99.2194 14.5319 99.1673 14.8607 99.0957 15.1797C98.9395 15.8958 98.7214 16.4362 98.4414 16.8008C98.2005 15.5443 97.888 14.6458 97.5039 14.1055C97.1003 13.5586 96.5729 13.2852 95.9219 13.2852C95.2773 13.2852 94.7728 13.4089 94.4082 13.6562C94.0436 13.9036 93.7637 14.2292 93.5684 14.6328C93.2428 15.3034 93.0801 16.293 93.0801 17.6016C93.0801 18.9036 93.2266 20.0983 93.5195 21.1855C93.819 22.2663 94.2422 23.1973 94.7891 23.9785C95.9414 25.6387 97.4421 26.4688 99.291 26.4688C99.265 26.7617 99.112 27.0156 98.832 27.2305C98.7474 27.2956 98.6562 27.3346 98.5586 27.3477C96.1953 27.3477 94.2682 26.4785 92.7773 24.7402C91.1953 22.8913 90.4043 20.3717 90.4043 17.1816C90.4043 15.515 90.8926 14.2617 91.8691 13.4219C92.735 12.6797 93.9199 12.3086 95.4238 12.3086L97.0547 12.3281C97.8229 12.3281 98.3633 12.2174 98.6758 11.9961C98.806 11.8984 98.9232 11.7747 99.0273 11.625ZM108.959 18.3047L108.812 22.6699C108.812 24.4473 108.969 25.668 109.281 26.332C109.392 26.5729 109.587 26.8789 109.867 27.25H107.152C107.003 26.8073 106.905 26.2474 106.859 25.5703C106.104 26.8203 105.131 27.4453 103.939 27.4453C103.119 27.4453 102.491 27.1393 102.055 26.5273C101.625 25.9349 101.41 25.1211 101.41 24.0859V22.7676C101.41 22.4746 101.41 22.1751 101.41 21.8691L101.391 20.9805C101.384 20.4141 101.365 19.9746 101.332 19.6621C101.306 19.3431 101.273 19.0794 101.234 18.8711C101.202 18.6562 101.16 18.4674 101.107 18.3047C101.055 18.1354 100.997 17.9792 100.932 17.8359L100.717 17.3867H103.539C103.546 17.4909 103.549 17.5885 103.549 17.6797V17.9629C103.549 17.9629 103.493 19.597 103.383 22.8652C103.383 23.8223 103.445 24.4733 103.568 24.8184C103.692 25.1634 103.839 25.4108 104.008 25.5605C104.184 25.7103 104.415 25.7852 104.701 25.7852C105.476 25.7852 106.104 25.362 106.586 24.5156C106.716 24.2747 106.824 24.0306 106.908 23.7832C106.921 23.4186 106.928 23.0052 106.928 22.543C106.928 20.1667 106.752 18.5977 106.4 17.8359L106.186 17.3867H108.969C108.962 17.5495 108.959 17.6992 108.959 17.8359V18.3047ZM117.973 16.8105C118.148 17.2012 118.236 17.5951 118.236 17.9922C118.236 18.3893 118.217 18.7181 118.178 18.9785C118.145 19.2389 118.093 19.4896 118.021 19.7305C117.859 20.2773 117.628 20.6973 117.328 20.9902C117.126 19.9811 116.905 19.3268 116.664 19.0273C116.43 18.7279 116.192 18.526 115.951 18.4219C115.717 18.3177 115.466 18.2656 115.199 18.2656C114.932 18.2656 114.714 18.2917 114.545 18.3438C114.376 18.3958 114.229 18.4707 114.105 18.5684C113.826 18.7832 113.686 19.0273 113.686 19.3008C113.686 19.5742 113.754 19.8118 113.891 20.0137C114.027 20.209 114.206 20.3945 114.428 20.5703C114.656 20.7396 114.913 20.9056 115.199 21.0684L116.078 21.5664C116.833 21.9896 117.351 22.3411 117.631 22.6211C118.184 23.1745 118.461 23.7572 118.461 24.3691C118.461 25.1699 118.188 25.8438 117.641 26.3906C116.951 27.0938 115.915 27.4453 114.535 27.4453C113.279 27.4453 112.335 27.1523 111.703 26.5664C111.521 26.3971 111.391 26.2279 111.312 26.0586C111.365 25.5703 111.583 25.1113 111.967 24.6816C112.338 24.265 112.699 24.0241 113.051 23.959C113.025 24.0436 113.012 24.1706 113.012 24.3398C113.012 24.5091 113.061 24.7207 113.158 24.9746C113.256 25.222 113.396 25.4531 113.578 25.668C113.988 26.1628 114.451 26.4102 114.965 26.4102C115.479 26.4102 115.857 26.293 116.098 26.0586C116.339 25.8242 116.459 25.5573 116.459 25.2578C116.459 24.9583 116.391 24.7077 116.254 24.5059C116.117 24.304 115.935 24.1152 115.707 23.9395C115.486 23.7637 115.232 23.5944 114.945 23.4316L114.066 22.9336C113.318 22.4909 112.803 22.1133 112.523 21.8008C111.964 21.1758 111.684 20.4954 111.684 19.7598C111.684 18.985 112.009 18.3568 112.66 17.875C113.279 17.4193 114.05 17.1914 114.975 17.1914L116.693 17.3086C117.11 17.3086 117.4 17.2598 117.562 17.1621C117.725 17.0579 117.862 16.9408 117.973 16.8105ZM123.52 13.4805C123.383 13.9818 123.314 14.584 123.314 15.2871C123.314 15.9837 123.327 16.4297 123.354 16.625C123.386 16.8203 123.435 16.9766 123.5 17.0938C123.624 17.2891 123.865 17.3867 124.223 17.3867H126.84C126.84 17.7513 126.752 18.0312 126.576 18.2266C126.257 18.5781 125.867 18.7539 125.404 18.7539C125.176 18.7539 124.975 18.7214 124.799 18.6562C124.48 18.526 124.232 18.4609 124.057 18.4609C123.881 18.4609 123.738 18.4967 123.627 18.5684C123.516 18.6335 123.428 18.7311 123.363 18.8613C123.246 19.0957 123.188 19.6068 123.188 20.3945C123.188 21.1823 123.21 21.9896 123.256 22.8164C123.308 23.6432 123.432 24.3366 123.627 24.8965C123.822 25.4499 124.118 25.8665 124.516 26.1465C124.913 26.4264 125.46 26.5664 126.156 26.5664C126.156 26.7682 126.02 27.0091 125.746 27.2891C125.674 27.3672 125.613 27.4193 125.561 27.4453C124.408 27.4453 123.546 27.3086 122.973 27.0352C122.315 26.7096 121.846 26.1302 121.566 25.2969C121.286 24.4505 121.146 23.1973 121.146 21.5371C121.146 20.0853 121.107 19.2292 121.029 18.9688C120.951 18.7018 120.88 18.526 120.814 18.4414C120.736 18.3438 120.548 18.2233 120.248 18.0801C120.652 17.7741 121.052 17.2044 121.449 16.3711L121.938 15.3457C122.283 14.5645 122.576 14.0599 122.816 13.832C123.064 13.5977 123.298 13.4805 123.52 13.4805ZM132.191 18.168C131.605 18.168 131.182 18.4609 130.922 19.0469C130.668 19.6328 130.541 20.6191 130.541 22.0059C130.541 24.9811 131.091 26.4688 132.191 26.4688C132.777 26.4688 133.197 26.0716 133.451 25.2773C133.712 24.4831 133.842 23.3926 133.842 22.0059C133.842 20.6191 133.712 19.6328 133.451 19.0469C133.197 18.4609 132.777 18.168 132.191 18.168ZM128.08 21.6348C128.08 18.6725 129.451 17.1914 132.191 17.1914C134.932 17.1914 136.303 18.6725 136.303 21.6348C136.303 23.4316 135.925 24.8542 135.17 25.9023C134.434 26.931 133.441 27.4453 132.191 27.4453C130.941 27.4453 129.949 26.931 129.213 25.9023C128.458 24.8542 128.08 23.4316 128.08 21.6348ZM138.998 27.25C139.298 26.2214 139.447 24.4538 139.447 21.9473C139.447 20.1634 139.291 18.946 138.979 18.2949C138.9 18.1322 138.812 17.9792 138.715 17.8359L138.393 17.3867H141.781C141.684 17.7708 141.618 18.0768 141.586 18.3047L141.518 18.8906C142.273 17.7578 143.233 17.1914 144.398 17.1914C145.57 17.1914 146.329 17.8262 146.674 19.0957C147.188 18.2168 147.868 17.6341 148.715 17.3477C149.014 17.2435 149.35 17.1914 149.721 17.1914C150.098 17.1914 150.437 17.2728 150.736 17.4355C151.042 17.5918 151.299 17.8164 151.508 18.1094C151.918 18.7018 152.123 19.5124 152.123 20.541V21.5859C152.123 23.5781 152.149 24.8281 152.201 25.3359C152.26 25.8372 152.302 26.1693 152.328 26.332C152.367 26.6185 152.432 26.9245 152.523 27.25H149.643C149.929 26.2669 150.072 24.4993 150.072 21.9473C150.072 20.9121 150.02 20.2188 149.916 19.8672C149.812 19.5091 149.675 19.252 149.506 19.0957C149.343 18.9329 149.118 18.8516 148.832 18.8516C147.992 18.8516 147.325 19.3464 146.83 20.3359V21.5859C146.83 23.5781 146.856 24.8281 146.908 25.3359C146.967 25.8372 147.009 26.1693 147.035 26.332C147.074 26.6185 147.139 26.9245 147.23 27.25H144.35C144.643 26.2474 144.789 24.4798 144.789 21.9473C144.789 20.8861 144.737 20.1862 144.633 19.8477C144.529 19.5026 144.395 19.252 144.232 19.0957C144.07 18.9329 143.845 18.8516 143.559 18.8516C143.279 18.8516 143.025 18.9069 142.797 19.0176C142.569 19.1283 142.364 19.2747 142.182 19.457C141.837 19.7956 141.566 20.2318 141.371 20.7656C141.358 20.9544 141.352 21.1497 141.352 21.3516V21.9473C141.352 24.4538 141.501 26.2214 141.801 27.25H138.998ZM146.508 21.1953L146.469 21.3711L146.508 21.1953ZM164.428 18.9688V20.9902C164.428 23.0605 164.451 24.3366 164.496 24.8184C164.548 25.2936 164.597 25.6354 164.643 25.8438C164.688 26.0521 164.757 26.2376 164.848 26.4004C164.991 26.6673 165.264 26.9505 165.668 27.25H160.717C161.231 26.931 161.566 26.6543 161.723 26.4199C162.022 25.9772 162.172 25.4043 162.172 24.7012C162.165 22.9694 162.162 21.4004 162.162 19.9941V14.8672C162.162 13.8971 162.009 13.194 161.703 12.7578C161.586 12.6016 161.446 12.4518 161.283 12.3086H168.627C169.07 12.4648 169.372 13.0117 169.535 13.9492C169.581 14.2096 169.604 14.4635 169.604 14.7109C169.604 15.2188 169.529 15.6224 169.379 15.9219L168.852 14.8672C168.5 14.1771 167.995 13.7148 167.338 13.4805C166.973 13.3503 166.563 13.2852 166.107 13.2852C165.652 13.2852 165.326 13.3014 165.131 13.334C164.936 13.36 164.786 13.4284 164.682 13.5391C164.512 13.7279 164.428 14.0892 164.428 14.623C164.428 15.1504 164.441 15.5182 164.467 15.7266C164.493 15.9284 164.555 16.0944 164.652 16.2246C164.854 16.4785 165.281 16.6055 165.932 16.6055H168.998C168.848 16.9831 168.695 17.25 168.539 17.4062C168.227 17.7188 167.803 17.875 167.27 17.875C167.061 17.875 166.863 17.8522 166.674 17.8066C166.322 17.722 166.013 17.6797 165.746 17.6797C165.479 17.6797 165.258 17.7057 165.082 17.7578C164.913 17.8034 164.779 17.8783 164.682 17.9824C164.512 18.1647 164.428 18.4935 164.428 18.9688ZM171.098 27.25C171.397 26.2214 171.547 24.4538 171.547 21.9473C171.547 20.1634 171.404 18.946 171.117 18.2949C171 18.028 170.792 17.7253 170.492 17.3867H173.959C173.842 17.7969 173.747 18.36 173.676 19.0762C174.288 18.3079 175.141 17.7643 176.234 17.4453C176.703 17.3086 177.045 17.0938 177.26 16.8008C177.475 17.3151 177.582 17.7578 177.582 18.1289C177.582 18.5 177.562 18.8451 177.523 19.1641C177.484 19.4766 177.426 19.7826 177.348 20.082C177.178 20.7266 176.954 21.2279 176.674 21.5859C176.433 20.3164 176.059 19.5742 175.551 19.3594C174.965 19.1055 174.392 19.4505 173.832 20.3945C173.715 20.5898 173.617 20.7982 173.539 21.0195C173.533 21.1693 173.529 21.3223 173.529 21.4785C173.529 21.6348 173.529 21.791 173.529 21.9473C173.529 24.4538 173.679 26.2214 173.979 27.25H171.098ZM186.156 22.0352L186.127 23.9102C186.127 25.0755 186.234 25.8698 186.449 26.293C186.579 26.5469 186.732 26.7422 186.908 26.8789L187.367 27.25H184.535L184.232 26.1172C183.497 27.0026 182.449 27.4453 181.088 27.4453C180.313 27.4453 179.688 27.1849 179.213 26.6641C178.796 26.1953 178.588 25.6419 178.588 25.0039C178.588 24.3659 178.738 23.8092 179.037 23.334C179.343 22.8587 179.743 22.4648 180.238 22.1523C181.215 21.5469 182.442 21.2311 183.92 21.2051V21.0977C183.92 19.5156 183.676 18.5879 183.188 18.3145C183.012 18.2168 182.784 18.168 182.504 18.168C182.23 18.168 181.957 18.2591 181.684 18.4414C181.41 18.6237 181.163 18.8581 180.941 19.1445C180.499 19.724 180.183 20.4076 179.994 21.1953C179.415 20.8503 179.125 20.1895 179.125 19.2129C179.125 18.8158 179.177 18.3698 179.281 17.875C179.529 17.875 179.763 17.8392 179.984 17.7676L180.736 17.5332C181.472 17.3053 182.191 17.1914 182.895 17.1914C183.598 17.1914 184.158 17.2956 184.574 17.5039C184.997 17.7122 185.326 18.0215 185.561 18.4316C185.958 19.1283 186.156 20.3294 186.156 22.0352ZM180.697 25.1992C180.697 25.6029 180.788 25.9154 180.971 26.1367C181.16 26.3581 181.394 26.4688 181.674 26.4688C181.954 26.4688 182.224 26.3971 182.484 26.2539C182.745 26.1042 182.979 25.9023 183.188 25.6484C183.676 25.069 183.92 24.3887 183.92 23.6074V22.1621C183.008 22.2467 182.257 22.5495 181.664 23.0703C181.02 23.6302 180.697 24.3398 180.697 25.1992ZM189.174 27.25C189.473 26.2214 189.623 24.4538 189.623 21.9473C189.623 20.1634 189.467 18.946 189.154 18.2949C189.076 18.1322 188.988 17.9792 188.891 17.8359L188.568 17.3867H191.957C191.859 17.7708 191.794 18.0768 191.762 18.3047L191.693 18.8906C192.449 17.7578 193.409 17.1914 194.574 17.1914C195.746 17.1914 196.505 17.8262 196.85 19.0957C197.364 18.2168 198.044 17.6341 198.891 17.3477C199.19 17.2435 199.525 17.1914 199.896 17.1914C200.274 17.1914 200.613 17.2728 200.912 17.4355C201.218 17.5918 201.475 17.8164 201.684 18.1094C202.094 18.7018 202.299 19.5124 202.299 20.541V21.5859C202.299 23.5781 202.325 24.8281 202.377 25.3359C202.436 25.8372 202.478 26.1693 202.504 26.332C202.543 26.6185 202.608 26.9245 202.699 27.25H199.818C200.105 26.2669 200.248 24.4993 200.248 21.9473C200.248 20.9121 200.196 20.2188 200.092 19.8672C199.988 19.5091 199.851 19.252 199.682 19.0957C199.519 18.9329 199.294 18.8516 199.008 18.8516C198.168 18.8516 197.501 19.3464 197.006 20.3359V21.5859C197.006 23.5781 197.032 24.8281 197.084 25.3359C197.143 25.8372 197.185 26.1693 197.211 26.332C197.25 26.6185 197.315 26.9245 197.406 27.25H194.525C194.818 26.2474 194.965 24.4798 194.965 21.9473C194.965 20.8861 194.913 20.1862 194.809 19.8477C194.704 19.5026 194.571 19.252 194.408 19.0957C194.245 18.9329 194.021 18.8516 193.734 18.8516C193.454 18.8516 193.201 18.9069 192.973 19.0176C192.745 19.1283 192.54 19.2747 192.357 19.457C192.012 19.7956 191.742 20.2318 191.547 20.7656C191.534 20.9544 191.527 21.1497 191.527 21.3516V21.9473C191.527 24.4538 191.677 26.2214 191.977 27.25H189.174ZM196.684 21.1953L196.645 21.3711L196.684 21.1953ZM211.918 23.9297C212.152 24.0859 212.27 24.3594 212.27 24.75C212.27 25.1341 212.217 25.4727 212.113 25.7656C212.009 26.0586 211.827 26.332 211.566 26.5859C210.98 27.1589 210.089 27.4453 208.891 27.4453C207.497 27.4453 206.436 26.931 205.707 25.9023C205.062 24.9844 204.74 23.7441 204.74 22.1816C204.74 20.6061 205.176 19.3691 206.049 18.4707C206.876 17.6178 207.995 17.1914 209.408 17.1914C210.391 17.1914 211.16 17.4779 211.713 18.0508C212.149 18.5065 212.367 19.0339 212.367 19.6328C212.367 20.2253 212.25 20.7624 212.016 21.2441C211.788 21.7194 211.449 22.1296 211 22.4746C210.076 23.1908 208.783 23.5684 207.123 23.6074C207.26 24.916 207.67 25.7917 208.354 26.2344C208.601 26.3906 208.93 26.4688 209.34 26.4688C209.75 26.4688 210.186 26.2539 210.648 25.8242C211.111 25.3945 211.534 24.763 211.918 23.9297ZM207.064 22.6797C209.122 22.543 210.15 21.5469 210.15 19.6914C210.15 18.9948 209.942 18.526 209.525 18.2852C209.382 18.207 209.193 18.168 208.959 18.168C208.725 18.168 208.487 18.2396 208.246 18.3828C208.012 18.526 207.807 18.7604 207.631 19.0859C207.253 19.7956 207.064 20.8926 207.064 22.377V22.6797ZM220.551 16.8105C220.727 17.2012 220.814 17.5951 220.814 17.9922C220.814 18.3893 220.795 18.7181 220.756 18.9785C220.723 19.2389 220.671 19.4896 220.6 19.7305C220.437 20.2773 220.206 20.6973 219.906 20.9902C219.704 19.9811 219.483 19.3268 219.242 19.0273C219.008 18.7279 218.77 18.526 218.529 18.4219C218.295 18.3177 218.044 18.2656 217.777 18.2656C217.51 18.2656 217.292 18.2917 217.123 18.3438C216.954 18.3958 216.807 18.4707 216.684 18.5684C216.404 18.7832 216.264 19.0273 216.264 19.3008C216.264 19.5742 216.332 19.8118 216.469 20.0137C216.605 20.209 216.785 20.3945 217.006 20.5703C217.234 20.7396 217.491 20.9056 217.777 21.0684L218.656 21.5664C219.411 21.9896 219.929 22.3411 220.209 22.6211C220.762 23.1745 221.039 23.7572 221.039 24.3691C221.039 25.1699 220.766 25.8438 220.219 26.3906C219.529 27.0938 218.493 27.4453 217.113 27.4453C215.857 27.4453 214.913 27.1523 214.281 26.5664C214.099 26.3971 213.969 26.2279 213.891 26.0586C213.943 25.5703 214.161 25.1113 214.545 24.6816C214.916 24.265 215.277 24.0241 215.629 23.959C215.603 24.0436 215.59 24.1706 215.59 24.3398C215.59 24.5091 215.639 24.7207 215.736 24.9746C215.834 25.222 215.974 25.4531 216.156 25.668C216.566 26.1628 217.029 26.4102 217.543 26.4102C218.057 26.4102 218.435 26.293 218.676 26.0586C218.917 25.8242 219.037 25.5573 219.037 25.2578C219.037 24.9583 218.969 24.7077 218.832 24.5059C218.695 24.304 218.513 24.1152 218.285 23.9395C218.064 23.7637 217.81 23.5944 217.523 23.4316L216.645 22.9336C215.896 22.4909 215.382 22.1133 215.102 21.8008C214.542 21.1758 214.262 20.4954 214.262 19.7598C214.262 18.985 214.587 18.3568 215.238 17.875C215.857 17.4193 216.628 17.1914 217.553 17.1914L219.271 17.3086C219.688 17.3086 219.978 17.2598 220.141 17.1621C220.303 17.0579 220.44 16.9408 220.551 16.8105Z" fill="#0B3A82"/>
</svg>
